<?xml version="1.0" encoding="UTF-8" standalone="no"?>
<!DOCTYPE svg PUBLIC "-//W3C//DTD SVG 1.1//EN"
 "http://www.w3.org/Graphics/SVG/1.1/DTD/svg11.dtd">
<!-- Generated by graphviz version 12.2.1 (20241206.2353)
 -->
<!-- Title: OvenUML Pages: 1 -->
<svg width="554pt" height="193pt"
 viewBox="0.00 0.00 553.88 193.00" xmlns="http://www.w3.org/2000/svg" xmlns:xlink="http://www.w3.org/1999/xlink">
<g id="graph0" class="graph" transform="scale(1 1) rotate(0) translate(4 189)">
<title>OvenUML</title>
<!-- Product -->
<g id="node1" class="node">
<title>Product</title>
<polygon fill="none" stroke="#666666" points="41.62,-74 41.62,-110 185.62,-110 185.62,-74 41.62,-74"/>
<text text-anchor="middle" x="113.25" y="-93" font-family="Consolas" font-size="10.00">&lt;&lt;interface&gt;&gt;</text>
<text text-anchor="middle" x="113.25" y="-82.5" font-family="Consolas" font-size="10.00">Product</text>
</g>
<!-- ConcreteProduct_1 -->
<g id="node2" class="node">
<title>ConcreteProduct_1</title>
<polygon fill="none" stroke="#666666" points="0,-0.5 0,-36.5 105.25,-36.5 105.25,-0.5 0,-0.5"/>
<text text-anchor="start" x="8" y="-14.5" font-family="Consolas" font-size="10.00">ConcreteProduct_1</text>
</g>
<!-- ConcreteProduct_1&#45;&gt;Product -->
<g id="edge4" class="edge">
<title>ConcreteProduct_1&#45;&gt;Product</title>
<path fill="none" stroke="#666666" stroke-dasharray="5,2" d="M73.44,-36.67C73.44,-36.67 73.44,-62.02 73.44,-62.02"/>
<polygon fill="none" stroke="#666666" points="69.94,-62.02 73.44,-72.02 76.94,-62.02 69.94,-62.02"/>
<text text-anchor="middle" x="40.44" y="-50.14" font-family="Consolas" font-size="11.00">implements </text>
</g>
<!-- ConcreteProduct_2 -->
<g id="node3" class="node">
<title>ConcreteProduct_2</title>
<polygon fill="none" stroke="#666666" points="123,-0.5 123,-36.5 228.25,-36.5 228.25,-0.5 123,-0.5"/>
<text text-anchor="start" x="131" y="-14.5" font-family="Consolas" font-size="10.00">ConcreteProduct_2</text>
</g>
<!-- ConcreteProduct_2&#45;&gt;Product -->
<g id="edge3" class="edge">
<title>ConcreteProduct_2&#45;&gt;Product</title>
<path fill="none" stroke="#666666" stroke-dasharray="5,2" d="M154.31,-36.67C154.31,-36.67 154.31,-62.02 154.31,-62.02"/>
<polygon fill="none" stroke="#666666" points="150.81,-62.02 154.31,-72.02 157.81,-62.02 150.81,-62.02"/>
<text text-anchor="middle" x="121.31" y="-50.14" font-family="Consolas" font-size="11.00">implements </text>
</g>
<!-- Creator -->
<g id="node4" class="node">
<title>Creator</title>
<polygon fill="none" stroke="#666666" points="222.38,-147.5 222.38,-184.5 374.88,-184.5 374.88,-147.5 222.38,-147.5"/>
<text text-anchor="middle" x="298.62" y="-171" font-family="Consolas" font-size="10.00">Creator</text>
<polyline fill="none" stroke="#666666" points="222.38,-166 374.88,-166"/>
<text text-anchor="start" x="230.38" y="-152.5" font-family="Consolas" font-size="10.00">+CreateProduct() : Product</text>
</g>
<!-- Creator&#45;&gt;Product -->
<g id="edge7" class="edge">
<title>Creator&#45;&gt;Product</title>
<path fill="none" stroke="#666666" stroke-dasharray="5,2" d="M222.04,-166C171.15,-166 113.62,-166 113.62,-166 113.62,-166 113.62,-121.51 113.62,-121.51"/>
<polygon fill="#666666" stroke="#666666" points="113.63,-111.51 118.13,-121.51 113.63,-115.29 113.63,-121.51 113.63,-121.51 113.63,-121.51 113.63,-115.29 109.13,-121.51 113.63,-111.51"/>
<text text-anchor="middle" x="133.59" y="-166.8" font-family="Consolas" font-size="11.00">uses</text>
</g>
<!-- ConcreteCreator_2 -->
<g id="node5" class="node">
<title>ConcreteCreator_2</title>
<polygon fill="none" stroke="#666666" points="393.38,-73.5 393.38,-110.5 545.88,-110.5 545.88,-73.5 393.38,-73.5"/>
<text text-anchor="middle" x="469.62" y="-97" font-family="Consolas" font-size="10.00">ConcreteCreator_2</text>
<polyline fill="none" stroke="#666666" points="393.38,-92 545.88,-92"/>
<text text-anchor="start" x="401.38" y="-78.5" font-family="Consolas" font-size="10.00">+CreateProduct() : Product</text>
</g>
<!-- ConcreteCreator_2&#45;&gt;Creator -->
<g id="edge5" class="edge">
<title>ConcreteCreator_2&#45;&gt;Creator</title>
<path fill="none" stroke="#666666" d="M469.62,-110.67C469.62,-132.6 469.62,-166 469.62,-166 469.62,-166 386.64,-166 386.64,-166"/>
<polygon fill="none" stroke="#666666" points="386.64,-162.5 376.64,-166 386.64,-169.5 386.64,-162.5"/>
<text text-anchor="middle" x="434.79" y="-166.8" font-family="Consolas" font-size="11.00">extends</text>
</g>
<!-- ConcreteCreator_1 -->
<g id="node6" class="node">
<title>ConcreteCreator_1</title>
<polygon fill="none" stroke="#666666" points="222.38,-73.5 222.38,-110.5 374.88,-110.5 374.88,-73.5 222.38,-73.5"/>
<text text-anchor="middle" x="298.62" y="-97" font-family="Consolas" font-size="10.00">ConcreteCreator_1</text>
<polyline fill="none" stroke="#666666" points="222.38,-92 374.88,-92"/>
<text text-anchor="start" x="230.38" y="-78.5" font-family="Consolas" font-size="10.00">+CreateProduct() : Product</text>
</g>
<!-- ConcreteCreator_1&#45;&gt;Creator -->
<g id="edge6" class="edge">
<title>ConcreteCreator_1&#45;&gt;Creator</title>
<path fill="none" stroke="#666666" d="M298.62,-110.67C298.62,-110.67 298.62,-135.56 298.62,-135.56"/>
<polygon fill="none" stroke="#666666" points="295.13,-135.56 298.63,-145.56 302.13,-135.56 295.13,-135.56"/>
<text text-anchor="middle" x="274.62" y="-123.92" font-family="Consolas" font-size="11.00">extends </text>
</g>
<!-- RankAligner -->
<!-- RankAligner&#45;&gt;ConcreteCreator_2 -->
<!-- RankAligner&#45;&gt;ConcreteCreator_1 -->
</g>
</svg>
