<?xml version="1.0" encoding="UTF-8" standalone="no"?>
<!DOCTYPE svg PUBLIC "-//W3C//DTD SVG 1.1//EN"
 "http://www.w3.org/Graphics/SVG/1.1/DTD/svg11.dtd">
<!-- Generated by graphviz version 12.2.1 (20241206.2353)
 -->
<!-- Title: OvenUML Pages: 1 -->
<svg width="758pt" height="257pt"
 viewBox="0.00 0.00 757.88 257.00" xmlns="http://www.w3.org/2000/svg" xmlns:xlink="http://www.w3.org/1999/xlink">
 <defs>
  <style>
    @media (prefers-color-scheme: dark) {
      text       { fill: white !important; }
      ellipse    { fill: #222 !important; stroke: white !important; }
      polygon    { fill: #222 !important; stroke: white !important; }
      path       { stroke: white !important; }
    }

    @media (prefers-color-scheme: light) {
      text       { fill: black !important; }
      ellipse    { fill: white !important; stroke: black !important; }
      polygon    { fill: white !important; stroke: black !important; }
      path       { stroke: black !important; }
    }
  </style>
</defs>
<g id="graph0" class="graph" transform="scale(1 1) rotate(0) translate(4 253)">
<title>OvenUML</title>
<!-- IDeviceConnection -->
<g id="node1" class="node">
<title>IDeviceConnection</title>
<polygon fill="none" stroke="#666666" points="90,-95.5 90,-164 253,-164 253,-95.5 90,-95.5"/>
<text text-anchor="middle" x="171.5" y="-150.5" font-family="Consolas" font-size="10.00">&lt;&lt;interface&gt;&gt;</text>
<text text-anchor="middle" x="171.5" y="-140" font-family="Consolas" font-size="10.00">IDeviceConnection</text>
<polyline fill="none" stroke="#666666" points="90,-135 253,-135"/>
<text text-anchor="start" x="98" y="-121.5" font-family="Consolas" font-size="10.00">+Open()</text>
<text text-anchor="start" x="98" y="-111" font-family="Consolas" font-size="10.00">+SetTemperature(temperature)</text>
<text text-anchor="start" x="98" y="-100.5" font-family="Consolas" font-size="10.00">+Close()</text>
</g>
<!-- SerialConnection -->
<g id="node2" class="node">
<title>SerialConnection</title>
<polygon fill="none" stroke="#666666" points="0,-0.5 0,-58.5 163,-58.5 163,-0.5 0,-0.5"/>
<text text-anchor="middle" x="81.5" y="-45" font-family="Consolas" font-size="10.00">SerialConnection</text>
<polyline fill="none" stroke="#666666" points="0,-40 163,-40"/>
<text text-anchor="start" x="8" y="-26.5" font-family="Consolas" font-size="10.00">+Open()</text>
<text text-anchor="start" x="8" y="-16" font-family="Consolas" font-size="10.00">+SetTemperature(temperature)</text>
<text text-anchor="start" x="8" y="-5.5" font-family="Consolas" font-size="10.00">+Close()</text>
</g>
<!-- SerialConnection&#45;&gt;IDeviceConnection -->
<g id="edge3" class="edge">
<title>SerialConnection&#45;&gt;IDeviceConnection</title>
<path fill="none" stroke="#666666" stroke-dasharray="5,2" d="M126.5,-58.77C126.5,-58.77 126.5,-83.8 126.5,-83.8"/>
<polygon fill="none" stroke="#666666" points="123,-83.8 126.5,-93.8 130,-83.8 123,-83.8"/>
<text text-anchor="middle" x="96.5" y="-72.08" font-family="Consolas" font-size="11.00">implements</text>
</g>
<!-- TcpConnection -->
<g id="node3" class="node">
<title>TcpConnection</title>
<polygon fill="none" stroke="#666666" points="181,-0.5 181,-58.5 344,-58.5 344,-0.5 181,-0.5"/>
<text text-anchor="middle" x="262.5" y="-45" font-family="Consolas" font-size="10.00">TcpConnection</text>
<polyline fill="none" stroke="#666666" points="181,-40 344,-40"/>
<text text-anchor="start" x="189" y="-26.5" font-family="Consolas" font-size="10.00">+Open()</text>
<text text-anchor="start" x="189" y="-16" font-family="Consolas" font-size="10.00">+SetTemperature(temperature)</text>
<text text-anchor="start" x="189" y="-5.5" font-family="Consolas" font-size="10.00">+Close()</text>
</g>
<!-- TcpConnection&#45;&gt;IDeviceConnection -->
<g id="edge4" class="edge">
<title>TcpConnection&#45;&gt;IDeviceConnection</title>
<path fill="none" stroke="#666666" stroke-dasharray="5,2" d="M217,-58.77C217,-58.77 217,-83.8 217,-83.8"/>
<polygon fill="none" stroke="#666666" points="213.5,-83.8 217,-93.8 220.5,-83.8 213.5,-83.8"/>
<text text-anchor="middle" x="178" y="-72.08" font-family="Consolas" font-size="11.00"> &#160;&#160;implements</text>
</g>
<!-- OvenController -->
<g id="node4" class="node">
<title>OvenController</title>
<polygon fill="none" stroke="#666666" points="290.12,-201 290.12,-248.5 510.88,-248.5 510.88,-201 290.12,-201"/>
<text text-anchor="middle" x="400.5" y="-235" font-family="Consolas" font-size="10.00">OvenController</text>
<polyline fill="none" stroke="#666666" points="290.12,-230 510.88,-230"/>
<text text-anchor="start" x="298.12" y="-216.5" font-family="Consolas" font-size="10.00">+CreateConnection() : IDeviceConnection</text>
<text text-anchor="start" x="298.12" y="-206" font-family="Consolas" font-size="10.00">+SetOvenTemperature(temperature)</text>
</g>
<!-- OvenController&#45;&gt;IDeviceConnection -->
<g id="edge7" class="edge">
<title>OvenController&#45;&gt;IDeviceConnection</title>
<path fill="none" stroke="#666666" stroke-dasharray="5,2" d="M289.69,-225C231.24,-225 171.5,-225 171.5,-225 171.5,-225 171.5,-175.63 171.5,-175.63"/>
<polygon fill="#666666" stroke="#666666" points="171.5,-165.63 176,-175.63 171.5,-169.41 171.5,-175.63 171.5,-175.63 171.5,-175.63 171.5,-169.41 167,-175.63 171.5,-165.63"/>
<text text-anchor="middle" x="193.91" y="-225.8" font-family="Consolas" font-size="11.00">uses</text>
</g>
<!-- LegacyOvenController -->
<g id="node5" class="node">
<title>LegacyOvenController</title>
<polygon fill="none" stroke="#666666" points="529.12,-111.25 529.12,-148.25 749.88,-148.25 749.88,-111.25 529.12,-111.25"/>
<text text-anchor="middle" x="639.5" y="-134.75" font-family="Consolas" font-size="10.00">LegacyOvenController</text>
<polyline fill="none" stroke="#666666" points="529.12,-129.75 749.88,-129.75"/>
<text text-anchor="start" x="537.12" y="-116.25" font-family="Consolas" font-size="10.00">+CreateConnection() : IDeviceConnection</text>
</g>
<!-- LegacyOvenController&#45;&gt;OvenController -->
<g id="edge5" class="edge">
<title>LegacyOvenController&#45;&gt;OvenController</title>
<path fill="none" stroke="#666666" d="M639.5,-148.57C639.5,-176.33 639.5,-225 639.5,-225 639.5,-225 522.77,-225 522.77,-225"/>
<polygon fill="none" stroke="#666666" points="522.77,-221.5 512.77,-225 522.77,-228.5 522.77,-221.5"/>
<text text-anchor="middle" x="598.35" y="-225.8" font-family="Consolas" font-size="11.00">extends</text>
</g>
<!-- ModernOvenController -->
<g id="node6" class="node">
<title>ModernOvenController</title>
<polygon fill="none" stroke="#666666" points="290.12,-111.25 290.12,-148.25 510.88,-148.25 510.88,-111.25 290.12,-111.25"/>
<text text-anchor="middle" x="400.5" y="-134.75" font-family="Consolas" font-size="10.00">ModernOvenController</text>
<polyline fill="none" stroke="#666666" points="290.12,-129.75 510.88,-129.75"/>
<text text-anchor="start" x="298.12" y="-116.25" font-family="Consolas" font-size="10.00">+CreateConnection() : IDeviceConnection</text>
</g>
<!-- ModernOvenController&#45;&gt;OvenController -->
<g id="edge6" class="edge">
<title>ModernOvenController&#45;&gt;OvenController</title>
<path fill="none" stroke="#666666" d="M400.5,-148.52C400.5,-148.52 400.5,-189.09 400.5,-189.09"/>
<polygon fill="none" stroke="#666666" points="397,-189.09 400.5,-199.09 404,-189.09 397,-189.09"/>
<text text-anchor="middle" x="376.5" y="-169.61" font-family="Consolas" font-size="11.00">extends </text>
</g>
<!-- RankAligner -->
<!-- RankAligner&#45;&gt;LegacyOvenController -->
<!-- RankAligner&#45;&gt;ModernOvenController -->
</g>
</svg>
